<svg width="25" height="24" viewBox="0 0 25 24" fill="none" xmlns="http://www.w3.org/2000/svg">
<path d="M12.162 10.87C12.062 10.86 11.942 10.86 11.832 10.87C9.45201 10.79 7.56201 8.84 7.56201 6.44C7.56201 3.99 9.54201 2 12.002 2C14.452 2 16.442 3.99 16.442 6.44C16.432 8.84 14.542 10.79 12.162 10.87Z" stroke="#767B89" stroke-width="1.5" stroke-linecap="round" stroke-linejoin="round"/>
<path d="M7.16192 14.56C4.74192 16.18 4.74192 18.82 7.16192 20.43C9.91192 22.27 14.4219 22.27 17.1719 20.43C19.5919 18.81 19.5919 16.17 17.1719 14.56C14.4319 12.73 9.92192 12.73 7.16192 14.56Z" stroke="#767B89" stroke-width="1.5" stroke-linecap="round" stroke-linejoin="round"/>
</svg>
