<svg width="182" height="47" viewBox="0 0 182 47" fill="none" xmlns="http://www.w3.org/2000/svg">
<g clip-path="url(#clip0_641_29120)">
<mask id="mask0_641_29120" style="mask-type:luminance" maskUnits="userSpaceOnUse" x="0" y="-1" width="25" height="48">
<path d="M24.0634 -0.167969H0.494141V46.7291H24.0634V-0.167969Z" fill="white"/>
</mask>
<g mask="url(#mask0_641_29120)">
<path d="M4.86899 37.1973V10.2282H12.4078C14.648 10.2282 16.4529 10.7911 17.8225 11.917C19.1921 13.0429 19.877 14.5344 19.877 16.3915C19.877 17.9005 19.4707 19.2237 18.6582 20.3612C17.8573 21.4987 16.7198 22.317 15.2457 22.8161V22.8857C17.0448 23.0598 18.4899 23.733 19.581 24.9054C20.6837 26.0777 21.235 27.5982 21.235 29.4669C21.235 31.7535 20.4109 33.6165 18.7627 35.0558C17.1261 36.4834 15.0542 37.1973 12.5471 37.1973H4.86899ZM7.8288 12.9791V21.8411H11.102C12.8895 21.8411 14.2823 21.4174 15.2806 20.5701C16.2788 19.7112 16.7779 18.5156 16.7779 16.9835C16.7779 14.3139 15.0368 12.9791 11.5547 12.9791H7.8288ZM7.8288 24.5745V34.4464H12.1989C14.056 34.4464 15.5069 34.0053 16.5515 33.1232C17.6078 32.2294 18.1359 30.9991 18.1359 29.4321C18.1359 26.1937 15.9189 24.5745 11.485 24.5745H7.8288Z" fill="#13C2BD"/>
</g>
<mask id="mask1_641_29120" style="mask-type:luminance" maskUnits="userSpaceOnUse" x="21" y="7" width="17" height="38">
<path d="M37.3159 7.96094H21.1768V44.6798H37.3159V7.96094Z" fill="white"/>
</mask>
<g mask="url(#mask1_641_29120)">
<path d="M36.0034 37.2031H24.5972V16.2941H27.8368V34.4225H36.0034V37.2031Z" fill="#13C2BD"/>
</g>
<mask id="mask2_641_29120" style="mask-type:luminance" maskUnits="userSpaceOnUse" x="35" y="7" width="25" height="38">
<path d="M59.8558 7.96094H35.626V44.6798H59.8558V7.96094Z" fill="white"/>
</mask>
<g mask="url(#mask2_641_29120)">
<path d="M37.6961 27.0118C37.6961 23.7092 38.6185 21.041 40.4633 19.0073C42.3171 16.9645 44.8143 15.9431 47.9549 15.9431C50.8975 15.9431 53.2598 16.933 55.0415 18.9128C56.8233 20.8926 57.7142 23.4303 57.7142 26.5259C57.7142 29.8105 56.8053 32.4697 54.9876 34.5034C53.1698 36.5372 50.7131 37.5541 47.6174 37.5541C44.6658 37.5541 42.2721 36.5732 40.4363 34.6114C38.6095 32.6497 37.6961 30.1165 37.6961 27.0118ZM41.0977 26.7824C41.0977 29.0861 41.6871 30.9849 42.866 32.4787C44.0448 33.9635 45.6377 34.7059 47.6444 34.7059C49.7502 34.7059 51.388 33.9995 52.5578 32.5867C53.7277 31.1648 54.3126 29.2481 54.3126 26.8363C54.3126 24.3706 53.7457 22.4179 52.6118 20.978C51.487 19.5382 49.8807 18.8183 47.7929 18.8183C45.7591 18.8183 44.1348 19.5652 42.92 21.059C41.7051 22.5529 41.0977 24.4606 41.0977 26.7824Z" fill="#13C2BD"/>
</g>
<mask id="mask3_641_29120" style="mask-type:luminance" maskUnits="userSpaceOnUse" x="58" y="7" width="21" height="38">
<path d="M78.3819 7.96094H58.1763V44.6798H78.3819V7.96094Z" fill="white"/>
</mask>
<g mask="url(#mask3_641_29120)">
<path d="M76.0935 36.3817C74.5457 37.1646 72.5974 37.556 70.2487 37.556C67.2251 37.556 64.7999 36.6066 62.9731 34.7079C61.1553 32.8001 60.2464 30.2849 60.2464 27.1623C60.2464 23.9046 61.2543 21.223 63.27 19.1172C65.2948 17.0025 67.9 15.9451 71.0856 15.9451C73.0924 15.9451 74.7617 16.2241 76.0935 16.782V20.0621C74.6177 19.2342 72.9844 18.8203 71.1936 18.8203C68.9169 18.8203 67.0901 19.5717 65.7132 21.0745C64.3364 22.5683 63.648 24.5256 63.648 26.9463C63.648 29.259 64.2914 31.1308 65.5783 32.5616C66.8741 33.9925 68.6064 34.7079 70.7751 34.7079C72.7909 34.7079 74.5637 34.2444 76.0935 33.3175V36.3817Z" fill="#13C2BD"/>
</g>
<mask id="mask4_641_29120" style="mask-type:luminance" maskUnits="userSpaceOnUse" x="76" y="7" width="21" height="38">
<path d="M96.4212 7.96094H76.6982V44.6798H96.4212V7.96094Z" fill="white"/>
</mask>
<g mask="url(#mask4_641_29120)">
<path d="M95.6554 37.2031H91.3494L83.9792 27.8082C83.7093 27.4663 83.5248 27.1738 83.4258 26.9308H83.3583V37.2031H80.1187V16.2941H83.3583V26.1479H83.4258C83.5518 25.896 83.7408 25.6035 83.9927 25.2705L91.0794 16.2941H95.0209L86.6519 26.3099L95.6554 37.2031Z" fill="#13C2BD"/>
</g>
<mask id="mask5_641_29120" style="mask-type:luminance" maskUnits="userSpaceOnUse" x="123" y="-1" width="12" height="48">
<path d="M134.791 -0.876953H123.198V46.72H134.791V-0.876953Z" fill="white"/>
</mask>
<g mask="url(#mask5_641_29120)">
<path d="M126.902 9.94257H130.775V37H126.902V9.94257Z" fill="#CF1F29"/>
</g>
<mask id="mask6_641_29120" style="mask-type:luminance" maskUnits="userSpaceOnUse" x="161" y="-1" width="21" height="48">
<path d="M181.492 -0.876953H161.648V46.72H181.492V-0.876953Z" fill="white"/>
</mask>
<g mask="url(#mask6_641_29120)">
<path d="M171.878 25.9529L168.934 24.1711C167.088 23.0477 165.771 21.9437 164.983 20.8591C164.208 19.7616 163.821 18.5026 163.821 17.0823C163.821 14.9518 164.557 13.2216 166.029 11.8916C167.514 10.5617 169.438 9.89668 171.8 9.89668C174.06 9.89668 176.133 10.5294 178.018 11.7948V16.1914C176.068 14.3191 173.97 13.383 171.723 13.383C170.458 13.383 169.418 13.6799 168.605 14.2739C167.791 14.8549 167.385 15.6039 167.385 16.5206C167.385 17.3341 167.682 18.0959 168.275 18.8061C168.869 19.5162 169.831 20.2587 171.161 21.0334L174.125 22.7766C177.43 24.7392 179.083 27.2442 179.083 30.2914C179.083 32.4607 178.353 34.2232 176.894 35.579C175.448 36.9347 173.563 37.6126 171.239 37.6126C168.566 37.6126 166.132 36.7927 163.937 35.1529V30.2333C166.029 32.8803 168.45 34.2038 171.2 34.2038C172.414 34.2038 173.421 33.8681 174.222 33.1967C175.035 32.5123 175.442 31.6601 175.442 30.6401C175.442 28.9873 174.254 27.4249 171.878 25.9529Z" fill="#CF1F29"/>
</g>
<path d="M113.547 22.0504C113.453 21.9312 113.352 21.8174 113.245 21.7095C112.493 22.5964 111.652 23.5014 110.723 24.4245C110.645 24.506 110.563 24.5844 110.482 24.6659C112.177 26.5885 113.572 28.2979 114.666 29.7942L118.232 27.6312C117.373 26.5312 116.505 25.4663 115.628 24.4366C114.941 23.6161 114.244 22.8227 113.547 22.0534M108.639 16.2011C108.25 15.7362 107.92 15.2244 107.658 14.6777C107.483 14.2987 107.349 13.9023 107.257 13.4951C107.22 13.3505 107.194 13.2033 107.179 13.0547C106.95 13.1642 106.735 13.2987 106.536 13.4559C106.499 13.4687 106.465 13.4893 106.437 13.5163C106.274 13.6391 106.119 13.7732 105.975 13.9175C105.646 14.2216 105.382 14.5882 105.196 14.9958C105.011 15.4034 104.908 15.844 104.895 16.2916V16.4515C104.867 16.6523 104.874 16.8564 104.916 17.0548C104.995 17.7768 105.362 18.5983 106.017 19.5194C106.524 20.2253 107.091 20.9594 107.719 21.7216C108.121 21.2691 108.495 20.8357 108.841 20.4214C109.444 19.7135 109.991 19.072 110.482 18.4968C109.748 17.6159 109.134 16.8547 108.639 16.2132M110.482 12.2674V8.82836C109.357 8.79551 108.252 9.13367 107.339 9.79067C107.183 9.90705 107.036 10.0341 106.898 10.1708L106.817 10.2522C106.555 10.5229 106.35 10.8428 106.213 11.1934C105.837 11.7961 105.533 12.4411 105.308 13.115C105 14.1445 104.86 15.2173 104.895 16.2916C104.91 15.8455 105.012 15.4067 105.198 15.0007C105.383 14.5947 105.647 14.2296 105.975 13.9265C106.119 13.7822 106.274 13.6482 106.437 13.5253C106.465 13.4983 106.499 13.4777 106.536 13.465C106.735 13.3078 106.95 13.1732 107.179 13.0638C107.247 13.0099 107.321 12.9634 107.399 12.925C108.363 12.4721 109.417 12.2461 110.482 12.2643M114.748 11.2025C114.621 10.8467 114.415 10.5247 114.144 10.2613C114.124 10.2284 114.096 10.2005 114.063 10.1798C113.933 10.0336 113.786 9.90305 113.625 9.79067C112.712 9.13367 111.607 8.79551 110.482 8.82836V12.2553C111.547 12.2341 112.602 12.4603 113.565 12.9159C113.648 12.9576 113.729 13.004 113.806 13.0547C114.034 13.1635 114.249 13.2981 114.446 13.4559C114.476 13.472 114.503 13.4923 114.527 13.5163C114.695 13.6329 114.85 13.7674 114.989 13.9175C115.653 14.534 116.048 15.3865 116.09 16.2916C116.123 15.2185 115.974 14.1476 115.65 13.1241C115.426 12.4471 115.124 11.7991 114.748 11.1934V11.2025Z" fill="#CF1F29"/>
<path d="M112.145 20.4093C111.541 19.7014 110.987 19.0599 110.482 18.4847V24.6749C110.564 24.5934 110.645 24.515 110.724 24.4336C111.657 23.5044 112.497 22.5994 113.246 21.7186C112.859 21.25 112.492 20.8166 112.145 20.4184M108.841 20.4184C108.495 20.8327 108.121 21.2661 107.719 21.7186C108.481 22.6055 109.322 23.5105 110.241 24.4336L110.482 24.6749V18.4847C109.988 19.0579 109.441 19.6994 108.841 20.4093M107.719 21.7216L107.417 22.0625C106.724 22.8307 106.03 23.6251 105.336 24.4456C104.495 25.4512 103.655 26.4869 102.814 27.5528L106.316 29.755C107.414 28.2788 108.803 26.5895 110.482 24.687L110.241 24.4456C109.322 23.5165 108.481 22.6115 107.719 21.7306M116.09 16.4213V16.2916C116.046 15.3897 115.651 14.5408 114.989 13.9265C114.852 13.7735 114.698 13.6359 114.531 13.5162C114.507 13.4923 114.479 13.472 114.449 13.4559C114.252 13.2981 114.038 13.1635 113.81 13.0547C113.794 13.2033 113.766 13.3505 113.728 13.4951C113.625 13.9013 113.485 14.2971 113.309 14.6777C113.059 15.2268 112.735 15.7394 112.347 16.2011C111.84 16.8406 111.219 17.6018 110.485 18.4847C110.992 19.0579 111.546 19.6994 112.148 20.4093C112.495 20.8115 112.862 21.2449 113.249 21.7095C113.888 20.9493 114.462 20.2152 114.971 19.5073C115.525 18.783 115.903 17.9389 116.072 17.0427C116.099 16.8428 116.106 16.6407 116.093 16.4394L116.09 16.4213Z" fill="#EC1F29"/>
<path d="M102.657 36.3802L106.386 34.2383V29.8672L102.657 32.009V36.3802Z" fill="#CF1F29"/>
<path d="M106.385 29.8655V34.2367L102.656 36.3785M106.385 29.8655L102.656 27.6875L98.8916 29.8655V34.2367L102.656 36.3785M106.385 29.8655L102.656 32.0074V36.3785" stroke="#CF1F29" stroke-width="1.78587" stroke-linecap="round" stroke-linejoin="round"/>
<path d="M118.315 36.3802L122.044 34.2383V29.8672L118.315 32.009V36.3802Z" fill="#CF1F29"/>
<path d="M122.045 29.8655V34.2367L118.316 36.3785M122.045 29.8655L118.316 27.6875L114.551 29.8655V34.2367L118.316 36.3785M122.045 29.8655L118.316 32.0074V36.3785" stroke="#CF1F29" stroke-width="1.78587" stroke-linecap="round" stroke-linejoin="round"/>
</g>
<path d="M137.461 36.9613V9.94257H146.584C150.264 9.94257 153.175 10.4978 155.319 11.6082C157.462 12.7058 159.167 14.3262 160.432 16.4697C161.698 18.6131 162.33 20.9502 162.33 23.481C162.33 25.2887 161.982 27.0189 161.284 28.6717C160.587 30.3244 159.593 31.777 158.302 33.0295C156.985 34.3207 155.454 35.2956 153.711 35.9541C152.691 36.3544 151.755 36.6255 150.903 36.7676C150.051 36.8967 148.424 36.9613 146.022 36.9613H137.461ZM146.177 13.3901H141.335V33.5137H146.293C148.23 33.5137 149.734 33.3846 150.806 33.1264C151.878 32.8552 152.769 32.5195 153.479 32.1192C154.202 31.706 154.861 31.2024 155.454 30.6085C157.365 28.6717 158.321 26.2248 158.321 23.2679C158.321 20.3627 157.34 17.9933 155.377 16.1598C154.654 15.4754 153.821 14.9138 152.879 14.4747C151.949 14.0357 151.064 13.7452 150.225 13.6032C149.386 13.4611 148.036 13.3901 146.177 13.3901Z" fill="#CF1F29"/>
<defs>
<clipPath id="clip0_641_29120">
<rect width="181" height="30.1667" fill="white" transform="translate(0.5 7.84375)"/>
</clipPath>
</defs>
</svg>
