<svg width="24" height="25" viewBox="0 0 24 25" fill="none" xmlns="http://www.w3.org/2000/svg">
<path d="M8 5.76758C7.59 5.76758 7.25 5.42758 7.25 5.01758V2.01758C7.25 1.60758 7.59 1.26758 8 1.26758C8.41 1.26758 8.75 1.60758 8.75 2.01758V5.01758C8.75 5.42758 8.41 5.76758 8 5.76758Z" fill="#474A52"/>
<path d="M16 5.76758C15.59 5.76758 15.25 5.42758 15.25 5.01758V2.01758C15.25 1.60758 15.59 1.26758 16 1.26758C16.41 1.26758 16.75 1.60758 16.75 2.01758V5.01758C16.75 5.42758 16.41 5.76758 16 5.76758Z" fill="#474A52"/>
<path d="M8.5 14.5179C8.37 14.5179 8.24 14.4879 8.12 14.4379C7.99 14.3879 7.89 14.3179 7.79 14.2279C7.61 14.0379 7.5 13.7879 7.5 13.5179C7.5 13.3879 7.53 13.2579 7.58 13.1379C7.63 13.0179 7.7 12.9079 7.79 12.8079C7.89 12.7179 7.99 12.6479 8.12 12.5979C8.48 12.4479 8.93 12.5279 9.21 12.8079C9.39 12.9979 9.5 13.2579 9.5 13.5179C9.5 13.5779 9.49 13.6479 9.48 13.7179C9.47 13.7779 9.45 13.8379 9.42 13.8979C9.4 13.9579 9.37 14.0179 9.33 14.0779C9.3 14.1279 9.25 14.1779 9.21 14.2279C9.02 14.4079 8.76 14.5179 8.5 14.5179Z" fill="#474A52"/>
<path d="M12 14.5184C11.87 14.5184 11.74 14.4884 11.62 14.4384C11.49 14.3884 11.39 14.3184 11.29 14.2284C11.11 14.0384 11 13.7884 11 13.5184C11 13.3884 11.03 13.2584 11.08 13.1384C11.13 13.0184 11.2 12.9084 11.29 12.8084C11.39 12.7184 11.49 12.6484 11.62 12.5984C11.98 12.4384 12.43 12.5284 12.71 12.8084C12.89 12.9984 13 13.2584 13 13.5184C13 13.5784 12.99 13.6484 12.98 13.7184C12.97 13.7784 12.95 13.8384 12.92 13.8984C12.9 13.9584 12.87 14.0184 12.83 14.0784C12.8 14.1284 12.75 14.1784 12.71 14.2284C12.52 14.4084 12.26 14.5184 12 14.5184Z" fill="#474A52"/>
<path d="M15.5 14.5184C15.37 14.5184 15.24 14.4884 15.12 14.4384C14.99 14.3884 14.89 14.3184 14.79 14.2284C14.75 14.1784 14.71 14.1284 14.67 14.0784C14.63 14.0184 14.6 13.9584 14.58 13.8984C14.55 13.8384 14.53 13.7784 14.52 13.7184C14.51 13.6484 14.5 13.5784 14.5 13.5184C14.5 13.2584 14.61 12.9984 14.79 12.8084C14.89 12.7184 14.99 12.6484 15.12 12.5984C15.49 12.4384 15.93 12.5284 16.21 12.8084C16.39 12.9984 16.5 13.2584 16.5 13.5184C16.5 13.5784 16.49 13.6484 16.48 13.7184C16.47 13.7784 16.45 13.8384 16.42 13.8984C16.4 13.9584 16.37 14.0184 16.33 14.0784C16.3 14.1284 16.25 14.1784 16.21 14.2284C16.02 14.4084 15.76 14.5184 15.5 14.5184Z" fill="#474A52"/>
<path d="M8.5 18.0168C8.37 18.0168 8.24 17.9868 8.12 17.9368C8 17.8868 7.89 17.8168 7.79 17.7268C7.61 17.5368 7.5 17.2768 7.5 17.0168C7.5 16.8868 7.53 16.7568 7.58 16.6368C7.63 16.5068 7.7 16.3968 7.79 16.3068C8.16 15.9368 8.84 15.9368 9.21 16.3068C9.39 16.4968 9.5 16.7568 9.5 17.0168C9.5 17.2768 9.39 17.5368 9.21 17.7268C9.02 17.9068 8.76 18.0168 8.5 18.0168Z" fill="#474A52"/>
<path d="M12 18.0168C11.74 18.0168 11.48 17.9068 11.29 17.7268C11.11 17.5368 11 17.2768 11 17.0168C11 16.8868 11.03 16.7568 11.08 16.6368C11.13 16.5068 11.2 16.3968 11.29 16.3068C11.66 15.9368 12.34 15.9368 12.71 16.3068C12.8 16.3968 12.87 16.5068 12.92 16.6368C12.97 16.7568 13 16.8868 13 17.0168C13 17.2768 12.89 17.5368 12.71 17.7268C12.52 17.9068 12.26 18.0168 12 18.0168Z" fill="#474A52"/>
<path d="M15.5 18.0185C15.24 18.0185 14.98 17.9085 14.79 17.7285C14.7 17.6385 14.63 17.5285 14.58 17.3985C14.53 17.2785 14.5 17.1485 14.5 17.0185C14.5 16.8885 14.53 16.7585 14.58 16.6385C14.63 16.5085 14.7 16.3985 14.79 16.3085C15.02 16.0785 15.37 15.9685 15.69 16.0385C15.76 16.0485 15.82 16.0685 15.88 16.0985C15.94 16.1185 16 16.1485 16.06 16.1885C16.11 16.2185 16.16 16.2685 16.21 16.3085C16.39 16.4985 16.5 16.7585 16.5 17.0185C16.5 17.2785 16.39 17.5385 16.21 17.7285C16.02 17.9085 15.76 18.0185 15.5 18.0185Z" fill="#474A52"/>
<path d="M20.5 9.85742H3.5C3.09 9.85742 2.75 9.51742 2.75 9.10742C2.75 8.69742 3.09 8.35742 3.5 8.35742H20.5C20.91 8.35742 21.25 8.69742 21.25 9.10742C21.25 9.51742 20.91 9.85742 20.5 9.85742Z" fill="#474A52"/>
<path d="M16 22.7676H8C4.35 22.7676 2.25 20.6676 2.25 17.0176V8.51758C2.25 4.86758 4.35 2.76758 8 2.76758H16C19.65 2.76758 21.75 4.86758 21.75 8.51758V17.0176C21.75 20.6676 19.65 22.7676 16 22.7676ZM8 4.26758C5.14 4.26758 3.75 5.65758 3.75 8.51758V17.0176C3.75 19.8776 5.14 21.2676 8 21.2676H16C18.86 21.2676 20.25 19.8776 20.25 17.0176V8.51758C20.25 5.65758 18.86 4.26758 16 4.26758H8Z" fill="#474A52"/>
</svg>
